<svg xmlns="http://www.w3.org/2000/svg" version="1.1" xmlns:xlink="http://www.w3.org/1999/xlink" xmlns:svgjs="http://svgjs.dev/svgjs" width="1500" height="356" viewBox="0 0 1500 356"><g transform="matrix(1,0,0,1,-0.9090909090909918,0.6122288886536467)"><svg viewBox="0 0 396 94" data-background-color="#ffffff" preserveAspectRatio="xMidYMid meet" height="356" width="1500" xmlns="http://www.w3.org/2000/svg" xmlns:xlink="http://www.w3.org/1999/xlink"><g id="tight-bounds" transform="matrix(1,0,0,1,0.2400000000000091,-0.1616559425096682)"><svg viewBox="0 0 395.52 94.32331188501934" height="94.32331188501934" width="395.52"><g><svg viewBox="0 0 395.52 94.32331188501934" height="94.32331188501934" width="395.52"><g><svg viewBox="0 0 395.52 94.32331188501934" height="94.32331188501934" width="395.52"><g id="textblocktransform"><svg viewBox="0 0 395.52 94.32331188501934" height="94.32331188501934" width="395.52" id="textblock"><g><svg viewBox="0 0 395.52 94.32331188501934" height="94.32331188501934" width="395.52"><rect width="395.52" height="94.32331188501934" x="0" y="0" opacity="1" fill="#0db9dd" data-fill-palette-color="tertiary"></rect><g transform="matrix(1,0,0,1,23.607599999999998,23.607599999999998)"><svg width="348.3048" viewBox="1.98 -35.35 264.96 35.84" height="47.10811188501934" data-palette-color="#d51212"><path d="M7.89 0L7.89 0 2.22 0Q1.98 0 1.98-0.24L1.98-0.24 2.03-34.59Q2.03-34.79 2.22-34.79L2.22-34.79 7.84-34.79Q8.03-34.79 8.03-34.59L8.03-34.59 8.08-0.24Q8.08 0 7.89 0ZM17.92 0L17.92 0 12.91 0Q12.52 0 12.52-0.34L12.52-0.34 12.47-34.4Q12.47-34.79 12.86-34.79L12.86-34.79 17.38-34.79 25.83-15.09 25.58-34.4Q25.58-34.79 26.02-34.79L26.02-34.79 30.98-34.79Q31.27-34.79 31.27-34.4L31.27-34.4 31.32-0.29Q31.32 0 31.08 0L31.08 0 26.68 0 18.02-18.41 18.38-0.39Q18.38 0 17.92 0ZM47.33 0L47.33 0 41.28 0Q41.06 0 41.04-0.24L41.04-0.24 34.13-34.59Q34.08-34.79 34.32-34.79L34.32-34.79 39.99-34.79Q40.18-34.79 40.23-34.59L40.23-34.59 44.33-11.69 48.33-34.59Q48.38-34.79 48.58-34.79L48.58-34.79 54.17-34.79Q54.44-34.79 54.37-34.59L54.37-34.59 47.58-0.24Q47.55 0 47.33 0ZM73.65 0L73.65 0 57.49 0Q57.29 0 57.29-0.24L57.29-0.24 57.34-34.59Q57.34-34.79 57.54-34.79L57.54-34.79 73.6-34.79Q73.8-34.79 73.8-34.55L73.8-34.55 73.8-28.96Q73.8-28.76 73.6-28.76L73.6-28.76 63.35-28.76 63.35-20.95 73.6-20.95Q73.8-20.95 73.8-20.75L73.8-20.75 73.85-15.09Q73.85-14.89 73.65-14.89L73.65-14.89 63.35-14.89 63.35-6.15 73.65-6.15Q73.85-6.15 73.85-5.91L73.85-5.91 73.85-0.2Q73.85 0 73.65 0ZM86.78 0.49L86.78 0.49Q84.12 0.49 81.87-0.88L81.87-0.88Q79.65-2.25 78.32-4.53 76.99-6.81 76.99-9.55L76.99-9.55 76.99-11.84Q76.99-12.11 77.24-12.11L77.24-12.11 82.85-12.11Q83.05-12.11 83.05-11.84L83.05-11.84 83.05-9.55Q83.05-7.91 84.15-6.73 85.24-5.54 86.78-5.54L86.78-5.54Q88.34-5.54 89.44-6.75 90.54-7.96 90.54-9.55L90.54-9.55Q90.54-11.38 88.15-12.74L88.15-12.74Q87.76-12.99 87.14-13.34 86.51-13.7 85.66-14.16L85.66-14.16Q84.8-14.62 84-15.08 83.19-15.53 82.44-15.94L82.44-15.94Q79.7-17.55 78.37-19.98 77.04-22.41 77.04-25.44L77.04-25.44Q77.04-28.22 78.41-30.47L78.41-30.47Q79.78-32.69 81.98-34 84.19-35.3 86.78-35.3L86.78-35.3Q89.44-35.3 91.66-33.98L91.66-33.98Q93.89-32.64 95.22-30.42 96.55-28.2 96.55-25.44L96.55-25.44 96.55-21.34Q96.55-21.14 96.35-21.14L96.35-21.14 90.74-21.14Q90.54-21.14 90.54-21.34L90.54-21.34 90.49-25.44Q90.49-27.2 89.39-28.3 88.3-29.39 86.78-29.39L86.78-29.39Q85.24-29.39 84.15-28.22 83.05-27.05 83.05-25.44L83.05-25.44Q83.05-23.8 83.74-22.71 84.44-21.61 86.29-20.61L86.29-20.61Q86.49-20.51 87.2-20.12 87.91-19.73 88.77-19.25 89.64-18.77 90.35-18.4 91.05-18.02 91.2-17.94L91.2-17.94Q93.69-16.55 95.14-14.53 96.6-12.5 96.6-9.55L96.6-9.55Q96.6-6.69 95.28-4.42L95.28-4.42Q93.94-2.15 91.71-0.83 89.49 0.49 86.78 0.49ZM110.73 0L110.73 0 105.09 0Q104.87 0 104.87-0.24L104.87-0.24 104.87-28.76 98.38-28.76Q98.13-28.76 98.13-29L98.13-29 98.18-34.59Q98.18-34.79 98.38-34.79L98.38-34.79 117.37-34.79Q117.64-34.79 117.64-34.59L117.64-34.59 117.64-29Q117.64-28.76 117.44-28.76L117.44-28.76 110.88-28.76 110.93-0.24Q110.93 0 110.73 0ZM141.54 0.49L141.54 0.49Q138.87 0.49 136.63-0.88L136.63-0.88Q134.41-2.25 133.08-4.53 131.75-6.81 131.75-9.55L131.75-9.55 131.75-11.84Q131.75-12.11 131.99-12.11L131.99-12.11 137.6-12.11Q137.8-12.11 137.8-11.84L137.8-11.84 137.8-9.55Q137.8-7.91 138.9-6.73 140-5.54 141.54-5.54L141.54-5.54Q143.1-5.54 144.2-6.75 145.3-7.96 145.3-9.55L145.3-9.55Q145.3-11.38 142.9-12.74L142.9-12.74Q142.51-12.99 141.89-13.34 141.27-13.7 140.41-14.16L140.41-14.16Q139.56-14.62 138.75-15.08 137.95-15.53 137.19-15.94L137.19-15.94Q134.46-17.55 133.12-19.98 131.79-22.41 131.79-25.44L131.79-25.44Q131.79-28.22 133.16-30.47L133.16-30.47Q134.53-32.69 136.74-34 138.95-35.3 141.54-35.3L141.54-35.3Q144.2-35.3 146.42-33.98L146.42-33.98Q148.64-32.64 149.97-30.42 151.3-28.2 151.3-25.44L151.3-25.44 151.3-21.34Q151.3-21.14 151.11-21.14L151.11-21.14 145.49-21.14Q145.3-21.14 145.3-21.34L145.3-21.34 145.25-25.44Q145.25-27.2 144.15-28.3 143.05-29.39 141.54-29.39L141.54-29.39Q140-29.39 138.9-28.22 137.8-27.05 137.8-25.44L137.8-25.44Q137.8-23.8 138.5-22.71 139.19-21.61 141.05-20.61L141.05-20.61Q141.24-20.51 141.95-20.12 142.66-19.73 143.52-19.25 144.39-18.77 145.1-18.4 145.81-18.02 145.95-17.94L145.95-17.94Q148.44-16.55 149.9-14.53 151.35-12.5 151.35-9.55L151.35-9.55Q151.35-6.69 150.03-4.42L150.03-4.42Q148.69-2.15 146.47-0.83 144.25 0.49 141.54 0.49ZM160.67 0L160.67 0 155.01 0Q154.81 0 154.81-0.24L154.81-0.24 154.91-34.59Q154.91-34.79 155.11-34.79L155.11-34.79 161.21-34.79Q161.41-34.79 161.55-34.59L161.55-34.59 166.12-28 170.66-34.59Q170.81-34.79 171.02-34.79L171.02-34.79 177.15-34.79Q177.37-34.79 177.37-34.59L177.37-34.59 177.47-0.24Q177.47 0 177.27 0L177.27 0 171.61 0Q171.42 0 171.42-0.24L171.42-0.24 171.37-25.76 166.12-18.14 160.92-25.76 160.87-0.24Q160.87 0 160.67 0ZM190.9 0.49L190.9 0.49Q188.23 0.49 185.99-0.88L185.99-0.88Q183.77-2.25 182.41-4.53 181.06-6.81 181.06-9.55L181.06-9.55 181.11-25.39Q181.11-28.17 182.45-30.4L182.45-30.4Q183.77-32.64 186.01-34 188.26-35.35 190.9-35.35L190.9-35.35Q193.63-35.35 195.8-34.01L195.8-34.01Q198-32.67 199.33-30.41 200.66-28.15 200.66-25.39L200.66-25.39 200.71-9.55Q200.71-6.81 199.39-4.54L199.39-4.54Q198.05-2.25 195.83-0.88 193.61 0.49 190.9 0.49ZM190.9-5.54L190.9-5.54Q192.41-5.54 193.53-6.77 194.66-8.01 194.66-9.55L194.66-9.55 194.61-25.39Q194.61-27.05 193.56-28.2 192.51-29.35 190.9-29.35L190.9-29.35Q189.36-29.35 188.26-28.22 187.16-27.1 187.16-25.39L187.16-25.39 187.16-9.55Q187.16-7.91 188.26-6.73 189.36-5.54 190.9-5.54ZM213.72 0.49L213.72 0.49Q211.06 0.49 208.81-0.88L208.81-0.88Q206.59-2.25 205.24-4.53 203.88-6.81 203.88-9.55L203.88-9.55 203.93-25.39Q203.93-28.17 205.27-30.4L205.27-30.4Q206.59-32.64 208.84-34 211.08-35.35 213.72-35.35L213.72-35.35Q216.45-35.35 218.63-34.01L218.63-34.01Q220.82-32.67 222.16-30.41 223.49-28.15 223.49-25.39L223.49-25.39 223.53-9.55Q223.53-6.81 222.22-4.54L222.22-4.54Q220.87-2.25 218.65-0.88 216.43 0.49 213.72 0.49ZM213.72-5.54L213.72-5.54Q215.23-5.54 216.36-6.77 217.48-8.01 217.48-9.55L217.48-9.55 217.43-25.39Q217.43-27.05 216.38-28.2 215.33-29.35 213.72-29.35L213.72-29.35Q212.18-29.35 211.08-28.22 209.98-27.1 209.98-25.39L209.98-25.39 209.98-9.55Q209.98-7.91 211.08-6.73 212.18-5.54 213.72-5.54ZM237.96 0L237.96 0 232.32 0Q232.1 0 232.1-0.24L232.1-0.24 232.1-28.76 225.61-28.76Q225.36-28.76 225.36-29L225.36-29 225.41-34.59Q225.41-34.79 225.61-34.79L225.61-34.79 244.6-34.79Q244.87-34.79 244.87-34.59L244.87-34.59 244.87-29Q244.87-28.76 244.67-28.76L244.67-28.76 238.11-28.76 238.16-0.24Q238.16 0 237.96 0ZM253.14 0L253.14 0 247.48 0Q247.28 0 247.28-0.24L247.28-0.24 247.33-34.59Q247.33-34.79 247.58-34.79L247.58-34.79 253.14-34.79Q253.39-34.79 253.39-34.59L253.39-34.59 253.34-21 260.83-21 260.83-34.59Q260.83-34.79 261.03-34.79L261.03-34.79 266.6-34.79Q266.84-34.79 266.84-34.59L266.84-34.59 266.94-0.24Q266.94 0 266.69 0L266.69 0 261.08 0Q260.83 0 260.83-0.24L260.83-0.24 260.83-14.94 253.34-14.94 253.34-0.24Q253.34 0 253.14 0Z" opacity="1" transform="matrix(1,0,0,1,0,0)" fill="#d51212" class="wordmark-text-0" data-fill-palette-color="quaternary" id="text-0"></path></svg></g></svg></g></svg></g></svg></g><g></g></svg></g><defs></defs></svg><rect width="395.52" height="94.32331188501934" fill="none" stroke="none" visibility="hidden"></rect></g></svg></g></svg>