<svg width="248" height="32" viewBox="0 0 248 32" fill="none" xmlns="http://www.w3.org/2000/svg">
<g clip-path="url(#clip0_8_12334)">
<path d="M27.2765 0.542557L16.3917 18.822V31.1297H23.1804V19.2226L35.1216 0.542557H27.2765Z" fill="#0082E9"/>
<path d="M16.7168 8.21484L12.0962 0.542557H4L13.1045 14.6964L16.7168 8.21484Z" fill="#0082E9"/>
<path d="M54.3057 32C45.0682 32 38.2093 24.9722 38.2093 16.0874V16C38.2093 7.20619 44.9352 0 54.5753 0C60.4923 0 64.0381 1.94447 66.9523 4.77378L62.557 9.76969C60.134 7.6031 57.6705 6.27765 54.531 6.27765C49.2419 6.27765 45.4302 10.6072 45.4302 15.9126V16C45.4302 21.3054 49.1495 25.7223 54.531 25.7223C58.1174 25.7223 60.315 24.3059 62.7823 22.0992L67.1776 26.4761C63.9494 29.8807 60.363 32 54.3094 32H54.3057Z" fill="#191919"/>
<path d="M96.0239 31.472V19.0514H83.2887V31.472H76.3818V0.531635H83.2887V12.7738H96.0239V0.531635H102.927V31.472H96.0239Z" fill="#191919"/>
<path d="M136.889 31.472L134.019 24.5353H120.748L117.878 31.472H110.839L124.29 0.309513H130.658L144.11 31.4684H136.893L136.889 31.472ZM127.382 8.48794L123.216 18.5234H131.552L127.382 8.48794Z" fill="#191919"/>
<path d="M170.999 31.472L164.276 21.5712H158.851V31.472H151.947V0.531635H166.293C173.691 0.531635 178.131 4.37688 178.131 10.7419V10.8293C178.131 15.8216 175.394 18.964 171.405 20.4242L179.073 31.472H170.999ZM171.135 11.0951C171.135 8.17843 169.071 6.67456 165.709 6.67456H158.851V15.5594H165.846C169.207 15.5594 171.139 13.7897 171.139 11.1825V11.0951H171.135Z" fill="#191919"/>
<path d="M202.733 6.80564V31.472H195.826V6.80564H186.275V0.531635H212.281V6.80564H202.73H202.733Z" fill="#191919"/>
<path d="M231.476 31.9163C226.723 31.9163 221.925 30.2777 218.157 26.964L222.239 22.1466C225.061 24.4479 228.023 25.9044 231.609 25.9044C234.435 25.9044 236.137 24.8011 236.137 22.9877V22.8967C236.137 21.1743 235.059 20.2895 229.814 18.964C223.491 17.3728 219.413 15.6504 219.413 9.50387V9.41648C219.413 3.80155 223.986 0.0910339 230.398 0.0910339C234.97 0.0910339 238.871 1.50387 242.054 4.02367L238.468 9.15066C235.687 7.24989 232.954 6.10287 230.309 6.10287C227.665 6.10287 226.272 7.29722 226.272 8.79745V8.88484C226.272 10.9167 227.62 11.5831 233.042 12.9522C239.41 14.5908 242.996 16.8411 242.996 22.234V22.325C242.996 28.4679 238.246 31.9199 231.476 31.9199V31.9163Z" fill="#191919"/>
</g>
<defs>
<clipPath id="clip0_8_12334">
<rect width="239" height="32" fill="white" transform="translate(4)"/>
</clipPath>
</defs>
</svg>
